<svg width="22" height="16" viewBox="0 0 22 16" fill="none" xmlns="http://www.w3.org/2000/svg">
<path d="M17 7.00244H15C14.7167 7.00244 14.4792 6.90661 14.2875 6.71494C14.0958 6.52327 14 6.28577 14 6.00244C14 5.71911 14.0958 5.48161 14.2875 5.28994C14.4792 5.09827 14.7167 5.00244 15 5.00244H17V3.00244C17 2.71911 17.0958 2.48161 17.2875 2.28994C17.4792 2.09827 17.7167 2.00244 18 2.00244C18.2833 2.00244 18.5208 2.09827 18.7125 2.28994C18.9042 2.48161 19 2.71911 19 3.00244V5.00244H21C21.2833 5.00244 21.5208 5.09827 21.7125 5.28994C21.9042 5.48161 22 5.71911 22 6.00244C22 6.28577 21.9042 6.52327 21.7125 6.71494C21.5208 6.90661 21.2833 7.00244 21 7.00244H19V9.00244C19 9.28578 18.9042 9.52328 18.7125 9.71494C18.5208 9.90661 18.2833 10.0024 18 10.0024C17.7167 10.0024 17.4792 9.90661 17.2875 9.71494C17.0958 9.52328 17 9.28578 17 9.00244V7.00244ZM8 8.00244C6.9 8.00244 5.95833 7.61077 5.175 6.82744C4.39167 6.04411 4 5.10244 4 4.00244C4 2.90244 4.39167 1.96077 5.175 1.17744C5.95833 0.394108 6.9 0.00244141 8 0.00244141C9.1 0.00244141 10.0417 0.394108 10.825 1.17744C11.6083 1.96077 12 2.90244 12 4.00244C12 5.10244 11.6083 6.04411 10.825 6.82744C10.0417 7.61077 9.1 8.00244 8 8.00244ZM0 14.0024V13.2024C0 12.6358 0.145833 12.1149 0.4375 11.6399C0.729167 11.1649 1.11667 10.8024 1.6 10.5524C2.63333 10.0358 3.68333 9.64827 4.75 9.38994C5.81667 9.13161 6.9 9.00244 8 9.00244C9.1 9.00244 10.1833 9.13161 11.25 9.38994C12.3167 9.64827 13.3667 10.0358 14.4 10.5524C14.8833 10.8024 15.2708 11.1649 15.5625 11.6399C15.8542 12.1149 16 12.6358 16 13.2024V14.0024C16 14.5524 15.8042 15.0233 15.4125 15.4149C15.0208 15.8066 14.55 16.0024 14 16.0024H2C1.45 16.0024 0.979167 15.8066 0.5875 15.4149C0.195833 15.0233 0 14.5524 0 14.0024Z" fill="#561FE7"/>
</svg>
