<svg width="96" height="32" viewBox="0 0 96 32" fill="none" xmlns="http://www.w3.org/2000/svg">
<path d="M3.86287 28.5943C1.61211 26.3238 0.484863 23.0095 0.484863 18.6476V3.42857C0.484863 2.38857 0.790936 1.5581 1.39935 0.933333C2.0115 0.312381 2.8252 0 3.8442 0C4.8632 0 5.66945 0.312381 6.26293 0.933333C6.86014 1.5581 7.15502 2.38857 7.15502 3.42476V16.6705C7.15502 19.1619 7.71491 21.0629 8.83469 22.3657C9.95447 23.6724 11.5744 24.3238 13.6983 24.3238C15.8184 24.3238 17.4495 23.6648 18.5805 22.3429C19.7152 21.0248 20.2826 19.1314 20.2826 16.6667V3.42857C20.2826 2.38857 20.5812 1.5581 21.1747 0.937143C21.7719 0.312381 22.5781 0.00380952 23.5934 0.00380952C24.6124 0.00380952 25.4261 0.31619 26.0345 0.937143C26.6467 1.5619 26.949 2.39238 26.949 3.42857V18.6476C26.949 22.979 25.8143 26.2895 23.5486 28.5714C21.2829 30.8571 17.9945 32 13.6945 32C9.39458 32 6.11736 30.8648 3.86287 28.5943Z" fill="url(#paint0_linear_19_1807)"/>
<path d="M78.0729 28.1633C78.0729 26.0259 76.3342 24.3038 74.1999 24.3229C73.595 24.3305 71.9438 24.3343 71.6851 24.3343C69.5204 24.3343 67.8692 23.6828 66.7279 22.376C65.5865 21.0692 65.0158 19.1718 65.0158 16.6801V3.42898C65.0158 2.38886 64.7115 1.55828 64.1066 0.937254C63.5016 0.312418 62.6799 0 61.645 0C60.6064 0 59.777 0.312418 59.1569 0.933444C58.533 1.55828 58.2248 2.38885 58.2248 3.42517V18.646C58.2248 23.0084 59.3738 26.3231 61.6679 28.5939C63.962 30.8646 67.3061 32 71.6889 32H74.238C76.3571 32.0038 78.0729 30.2817 78.0729 28.1633Z" fill="url(#paint1_linear_19_1807)"/>
<path d="M42.8876 32C41.3859 32 39.9301 31.7046 38.5545 31.1216C37.2286 30.5577 36.0403 29.7522 35.02 28.7281C33.9998 27.7039 33.1974 26.5071 32.6357 25.18C32.0549 23.7991 31.7607 22.3376 31.7607 20.8302C31.7607 19.3227 32.0549 17.8613 32.6357 16.4804C33.1974 15.1494 33.9998 13.9565 35.02 12.9323C36.0403 11.9081 37.2324 11.1026 38.5545 10.5388C39.9301 9.95573 41.3859 9.66038 42.8876 9.66038C44.3893 9.66038 45.8451 9.95573 47.2207 10.5388C48.5466 11.1026 49.735 11.9081 50.7552 12.9323C51.7754 13.9565 52.5779 15.1532 53.1396 16.4804C53.7204 17.8613 54.0146 19.3227 54.0146 20.8302C54.0146 22.3376 53.7204 23.7991 53.1396 25.18C52.5779 26.511 51.7754 27.7039 50.7552 28.7281C49.735 29.7522 48.5428 30.5577 47.2207 31.1216C45.8451 31.7046 44.3855 32 42.8876 32ZM42.8876 16.1774C40.3351 16.1774 38.2565 18.264 38.2565 20.8263C38.2565 23.3887 40.3351 25.4753 42.8876 25.4753C45.4401 25.4753 47.5188 23.3887 47.5188 20.8263C47.5188 18.264 45.4401 16.1774 42.8876 16.1774Z" fill="url(#paint2_linear_19_1807)"/>
<path d="M84.3882 21.7358C82.8865 21.7358 81.4307 21.4485 80.0551 20.8812C78.7292 20.3326 77.5408 19.5488 76.5206 18.5524C75.5004 17.5559 74.698 16.3915 74.1363 15.1001C73.5555 13.7566 73.2612 12.3346 73.2612 10.8679C73.2612 9.4012 73.5555 7.97926 74.1363 6.6357C74.698 5.34066 75.5004 4.17997 76.5206 3.1835C77.5408 2.18702 78.733 1.40328 80.0551 0.854655C81.4307 0.287373 82.8865 0 84.3882 0C85.8899 0 87.3457 0.287373 88.7213 0.854655C90.0472 1.40328 91.2356 2.18702 92.2558 3.1835C93.276 4.17997 94.0784 5.34439 94.6401 6.6357C95.2209 7.97926 95.5152 9.4012 95.5152 10.8679C95.5152 12.3346 95.2209 13.7566 94.6401 15.1001C94.0784 16.3952 93.276 17.5559 92.2558 18.5524C91.2356 19.5488 90.0434 20.3326 88.7213 20.8812C87.3495 21.4485 85.8899 21.7358 84.3882 21.7358ZM84.3882 6.34087C81.8357 6.34087 79.757 8.37114 79.757 10.8642C79.757 13.3572 81.8357 15.3875 84.3882 15.3875C86.9407 15.3875 89.0193 13.3572 89.0193 10.8642C89.0232 8.37114 86.9445 6.34087 84.3882 6.34087Z" fill="url(#paint3_linear_19_1807)"/>
<defs>
<linearGradient id="paint0_linear_19_1807" x1="7.35032" y1="2.7951" x2="22.4924" y2="46.7833" gradientUnits="userSpaceOnUse">
<stop stop-color="#9760F2"/>
<stop offset="1" stop-color="#6A3BE4"/>
</linearGradient>
<linearGradient id="paint1_linear_19_1807" x1="7.35032" y1="2.7951" x2="22.4924" y2="46.7833" gradientUnits="userSpaceOnUse">
<stop stop-color="#9760F2"/>
<stop offset="1" stop-color="#6A3BE4"/>
</linearGradient>
<linearGradient id="paint2_linear_19_1807" x1="7.35032" y1="2.7951" x2="22.4924" y2="46.7833" gradientUnits="userSpaceOnUse">
<stop stop-color="#9760F2"/>
<stop offset="1" stop-color="#6A3BE4"/>
</linearGradient>
<linearGradient id="paint3_linear_19_1807" x1="7.35032" y1="2.7951" x2="22.4924" y2="46.7833" gradientUnits="userSpaceOnUse">
<stop stop-color="#9760F2"/>
<stop offset="1" stop-color="#6A3BE4"/>
</linearGradient>
</defs>
</svg>
