<svg width="149" height="50" viewBox="0 0 149 50" fill="none" xmlns="http://www.w3.org/2000/svg">
  <path d="M5.27813 44.6786C1.76132 41.1309 0 35.9524 0 29.1369V5.35714C0 3.73214 0.478239 2.43452 1.42889 1.45833C2.38536 0.488095 3.65678 0 5.24897 0C6.84116 0 8.10091 0.488095 9.02823 1.45833C9.96138 2.43452 10.4221 3.73214 10.4221 5.35119V26.0476C10.4221 29.9405 11.2969 32.9107 13.0466 34.9464C14.7963 36.9881 17.3274 38.006 20.6459 38.006C23.9586 38.006 26.5073 36.9762 28.2744 34.9107C30.0474 32.8512 30.9339 29.8929 30.9339 26.0417V5.35714C30.9339 3.73214 31.4005 2.43452 32.3278 1.46429C33.261 0.488095 34.5207 0.00595238 36.1071 0.00595238C37.6993 0.00595238 38.9707 0.494048 39.9213 1.46429C40.8778 2.44048 41.3502 3.73809 41.3502 5.35714V29.1369C41.3502 35.9048 39.5772 41.0774 36.0371 44.6429C32.497 48.2143 27.3588 50 20.6401 50C13.9214 50 8.80077 48.2262 5.27813 44.6786Z" fill="url(#paint0_linear_29_2959)"/>
  <path d="M121.231 44.0052C121.231 40.6655 118.515 37.9748 115.18 38.0045C114.235 38.0164 111.655 38.0224 111.25 38.0224C107.868 38.0224 105.288 37.0044 103.505 34.9625C101.721 32.9206 100.83 29.9559 100.83 26.0626V5.35778C100.83 3.73259 100.354 2.43481 99.4089 1.46446C98.4637 0.488153 97.1797 0 95.5628 0C93.9399 0 92.644 0.488153 91.6751 1.45851C90.7001 2.43481 90.2186 3.73259 90.2186 5.35183V29.1344C90.2186 35.9507 92.0139 41.1299 95.5984 44.6779C99.183 48.226 104.408 50 111.256 50H115.239C118.55 50.0059 121.231 47.3151 121.231 44.0052Z" fill="url(#paint1_linear_29_2959)"/>
  <path d="M66.2543 50C63.9079 50 61.6332 49.5385 59.4838 48.6275C57.4121 47.7465 55.5553 46.4879 53.9612 44.8876C52.3671 43.2874 51.1133 41.4174 50.2357 39.3437C49.3282 37.1861 48.8684 34.9026 48.8684 32.5472C48.8684 30.1917 49.3282 27.9083 50.2357 25.7506C51.1133 23.6709 52.3671 21.807 53.9612 20.2067C55.5553 18.6065 57.4181 17.3479 59.4838 16.4668C61.6332 15.5558 63.9079 15.0943 66.2543 15.0943C68.6007 15.0943 70.8754 15.5558 73.0248 16.4668C75.0965 17.3479 76.9533 18.6065 78.5474 20.2067C80.1415 21.807 81.3953 23.6769 82.273 25.7506C83.1805 27.9083 83.6402 30.1917 83.6402 32.5472C83.6402 34.9026 83.1805 37.1861 82.273 39.3437C81.3953 41.4234 80.1415 43.2874 78.5474 44.8876C76.9533 46.4879 75.0905 47.7465 73.0248 48.6275C70.8754 49.5385 68.5947 50 66.2543 50ZM66.2543 25.2772C62.2661 25.2772 59.0182 28.5376 59.0182 32.5412C59.0182 36.5448 62.2661 39.8052 66.2543 39.8052C70.2426 39.8052 73.4905 36.5448 73.4905 32.5412C73.4905 28.5376 70.2426 25.2772 66.2543 25.2772Z" fill="url(#paint2_linear_29_2959)"/>
  <path d="M131.099 33.9623C128.753 33.9623 126.478 33.5132 124.328 32.6269C122.257 31.7696 120.4 30.545 118.806 28.988C117.212 27.4311 115.958 25.6117 115.08 23.594C114.173 21.4947 113.713 19.2729 113.713 16.9811C113.713 14.6894 114.173 12.4676 115.08 10.3683C115.958 8.34478 117.212 6.5312 118.806 4.97421C120.4 3.41722 122.263 2.19262 124.328 1.3354C126.478 0.44902 128.753 0 131.099 0C133.445 0 135.72 0.44902 137.869 1.3354C139.941 2.19262 141.798 3.41722 143.392 4.97421C144.986 6.5312 146.24 8.35061 147.118 10.3683C148.025 12.4676 148.485 14.6894 148.485 16.9811C148.485 19.2729 148.025 21.4947 147.118 23.594C146.24 25.6175 144.986 27.4311 143.392 28.988C141.798 30.545 139.935 31.7696 137.869 32.6269C135.726 33.5132 133.445 33.9623 131.099 33.9623ZM131.099 9.9076C127.111 9.9076 123.863 13.0799 123.863 16.9753C123.863 20.8707 127.111 24.043 131.099 24.043C135.087 24.043 138.335 20.8707 138.335 16.9753C138.341 13.0799 135.093 9.9076 131.099 9.9076Z" fill="url(#paint3_linear_29_2959)"/>
  <defs>
  <linearGradient id="paint0_linear_29_2959" x1="10.7273" y1="4.36735" x2="34.3867" y2="73.0988" gradientUnits="userSpaceOnUse">
  <stop stop-color="#9760F2"/>
  <stop offset="1" stop-color="#6A3BE4"/>
  </linearGradient>
  <linearGradient id="paint1_linear_29_2959" x1="10.7273" y1="4.36735" x2="34.3867" y2="73.0988" gradientUnits="userSpaceOnUse">
  <stop stop-color="#9760F2"/>
  <stop offset="1" stop-color="#6A3BE4"/>
  </linearGradient>
  <linearGradient id="paint2_linear_29_2959" x1="10.7273" y1="4.36735" x2="34.3867" y2="73.0988" gradientUnits="userSpaceOnUse">
  <stop stop-color="#9760F2"/>
  <stop offset="1" stop-color="#6A3BE4"/>
  </linearGradient>
  <linearGradient id="paint3_linear_29_2959" x1="10.7273" y1="4.36735" x2="34.3867" y2="73.0988" gradientUnits="userSpaceOnUse">
  <stop stop-color="#9760F2"/>
  <stop offset="1" stop-color="#6A3BE4"/>
  </linearGradient>
  </defs>
  </svg>
  