<svg width="148" height="148" viewBox="0 0 148 148" fill="none" xmlns="http://www.w3.org/2000/svg">
  <path d="M74 148C114.869 148 148 114.869 148 74C148 33.1309 114.869 0 74 0C33.1309 0 0 33.1309 0 74C0 114.869 33.1309 148 74 148Z" fill="#FFF8E7"/>
  <path d="M74.2126 125.849C98.5566 125.849 118.291 106.107 118.291 81.7547C118.291 57.4022 98.5566 37.6606 74.2126 37.6606C49.8685 37.6606 30.1338 57.4022 30.1338 81.7547C30.1338 106.107 49.8685 125.849 74.2126 125.849Z" fill="#FF8F66"/>
  <path d="M74.5897 70.4875C74.5897 78.1252 80.7972 84.333 88.4344 84.333C96.0717 84.333 102.279 78.1252 102.279 70.4875C102.279 62.8499 96.0717 56.6421 88.4344 56.6421C80.7972 56.6421 74.5897 62.8499 74.5897 70.4875Z" fill="white"/>
  <path d="M78.0075 70.9756C78.0075 73.5215 80.065 75.5791 82.6107 75.5791C85.1565 75.5791 87.214 73.5215 87.214 70.9756C87.214 68.4297 85.1565 66.3721 82.6107 66.3721C80.0998 66.3721 78.0075 68.4297 78.0075 70.9756Z" fill="black"/>
  <path d="M45.1914 71.4991C45.1914 79.1368 51.3989 85.3446 59.0361 85.3446C66.6733 85.3446 72.8807 79.1368 72.8807 71.4991C72.8807 63.8615 66.6733 57.6537 59.0361 57.6537C51.3989 57.6188 45.1914 63.8266 45.1914 71.4991Z" fill="white"/>
  <path d="M48.6435 71.9875C48.6435 74.5334 50.701 76.591 53.2468 76.591C55.7925 76.591 57.85 74.5334 57.85 71.9875C57.85 69.4416 55.7925 67.384 53.2468 67.384C50.701 67.3491 48.6435 69.4416 48.6435 71.9875Z" fill="black"/>
  <path d="M51.085 69.8948C51.085 70.6272 51.6778 71.2201 52.4102 71.2201C53.1425 71.2201 53.7352 70.6272 53.7352 69.8948C53.7352 69.1625 53.1425 68.5696 52.4102 68.5696C51.6778 68.5696 51.085 69.1625 51.085 69.8948Z" fill="white"/>
  <path d="M65.7319 97.8995C56.4557 97.4112 60.222 107.909 59.4548 112.931C57.9552 123.184 50.1784 114.674 50.9456 107.665C51.7128 102.642 54.9561 99.155 58.4434 95.8767L65.7319 97.8995Z" fill="#E86792"/>
  <path d="M107.231 78.9971C107.092 80.6362 106.464 82.3102 105.767 83.775C104.023 87.5066 101.093 90.5408 97.6759 92.8076C91.8521 96.6439 84.7031 98.0738 77.8679 98.4574C72.7067 98.7713 67.5105 98.5272 62.4888 97.4112C58.1645 96.4347 54.0146 94.6909 50.4575 92.1101C46.2727 89.076 43.0992 84.8561 41.0068 80.148C40.8673 79.869 41.3207 79.59 41.4254 79.9038C44.3547 86.565 49.4113 91.7614 56.0372 94.7606C61.3728 97.167 67.3013 98.0389 73.1251 98.1087C84.18 98.2482 97.5016 95.8767 104.023 85.9024C105.313 83.9145 106.534 81.3337 106.743 79.032C106.743 78.6832 107.266 78.6832 107.231 78.9971Z" fill="#332627"/>
  <path d="M109.146 55.5002L112.501 46.5095L106.344 48.4134V38.9997L98.7689 41.1152L97.3507 32.9707L89.6373 36.1086L88.5651 28.8456L81.7164 33.8521L76.2512 26.6244L71.7893 33.147L65.7361 26.977L62.8998 35.1214L56.397 29.6565L54.9097 38.7177L46.4699 34.4163L47.7151 43.971L38.5836 40.3748L41.5582 51.093L33.6719 50.2468L38.6527 57.6861C38.6527 57.6861 49.2716 45.3108 65.5286 40.2337C65.5286 40.1985 92.024 34.8393 109.146 55.5002Z" fill="#7342E7"/>
  </svg>
  