<svg width="89" height="100" viewBox="0 0 89 100" fill="none" xmlns="http://www.w3.org/2000/svg">
  <path d="M44.2126 99.8488C68.5566 99.8488 88.2913 80.1072 88.2913 55.7547C88.2913 31.4022 68.5566 11.6606 44.2126 11.6606C19.8685 11.6606 0.133789 31.4022 0.133789 55.7547C0.133789 80.1072 19.8685 99.8488 44.2126 99.8488Z" fill="#FF8F66"/>
  <path d="M44.5897 44.4875C44.5897 52.1252 50.7972 58.333 58.4344 58.333C66.0717 58.333 72.2792 52.1252 72.2792 44.4875C72.2792 36.8499 66.0717 30.6421 58.4344 30.6421C50.7972 30.6421 44.5897 36.8499 44.5897 44.4875Z" fill="white"/>
  <path d="M48.0075 44.9756C48.0075 47.5215 50.065 49.5791 52.6107 49.5791C55.1565 49.5791 57.214 47.5215 57.214 44.9756C57.214 42.4297 55.1565 40.3721 52.6107 40.3721C50.0998 40.3721 48.0075 42.4297 48.0075 44.9756Z" fill="black"/>
  <path d="M50.4834 42.8834C50.4834 43.6157 51.0762 44.2086 51.8085 44.2086C52.5409 44.2086 53.1337 43.6157 53.1337 42.8834C53.1337 42.151 52.5409 41.5581 51.8085 41.5581C51.0762 41.5581 50.4834 42.151 50.4834 42.8834Z" fill="white"/>
  <path d="M15.1914 45.4991C15.1914 53.1368 21.3989 59.3446 29.0361 59.3446C36.6733 59.3446 42.8807 53.1368 42.8807 45.4991C42.8807 37.8615 36.6733 31.6537 29.0361 31.6537C21.3989 31.6188 15.1914 37.8266 15.1914 45.4991Z" fill="white"/>
  <path d="M18.6435 45.9875C18.6435 48.5334 20.701 50.591 23.2468 50.591C25.7925 50.591 27.85 48.5334 27.85 45.9875C27.85 43.4416 25.7925 41.384 23.2468 41.384C20.701 41.3491 18.6435 43.4416 18.6435 45.9875Z" fill="black"/>
  <path d="M21.085 43.8948C21.085 44.6272 21.6778 45.2201 22.4102 45.2201C23.1425 45.2201 23.7352 44.6272 23.7352 43.8948C23.7352 43.1625 23.1425 42.5696 22.4102 42.5696C21.6778 42.5696 21.085 43.1625 21.085 43.8948Z" fill="white"/>
  <path d="M35.7319 71.8995C26.4557 71.4112 30.222 81.9086 29.4548 86.9307C27.9552 97.1839 20.1784 88.6744 20.9456 81.6645C21.7128 76.6425 24.9561 73.155 28.4434 69.8767L35.7319 71.8995Z" fill="#E86792"/>
  <path d="M77.2312 52.9971C77.0917 54.6362 76.464 56.3102 75.7666 57.775C74.0229 61.5066 71.0935 64.5408 67.6759 66.8076C61.8521 70.6439 54.7031 72.0738 47.8679 72.4574C42.7067 72.7713 37.5105 72.5272 32.4888 71.4112C28.1645 70.4347 24.0146 68.6909 20.4575 66.1101C16.2727 63.076 13.0992 58.8561 11.0068 54.148C10.8673 53.869 11.3207 53.59 11.4254 53.9038C14.3547 60.565 19.4113 65.7614 26.0372 68.7606C31.3728 71.167 37.3013 72.0389 43.1251 72.1087C54.18 72.2482 67.5016 69.8767 74.0229 59.9024C75.3132 57.9145 76.5337 55.3337 76.7429 53.032C76.7429 52.6832 77.2661 52.6832 77.2312 52.9971Z" fill="#332627"/>
  <path d="M79.1457 29.5002L82.5008 20.5095L76.3439 22.4134V12.9997L68.7689 15.1152L67.3507 6.97071L59.6373 10.1086L58.5651 2.8456L51.7164 7.85215L46.2512 0.62439L41.7893 7.147L35.7361 0.976963L32.8998 9.12141L26.397 3.65652L24.9097 12.7177L16.4699 8.41627L17.7151 17.971L8.58356 14.3748L11.5582 25.093L3.6719 24.2468L8.65272 31.6861C8.65272 31.6861 19.2716 19.3108 35.5286 14.2337C35.5286 14.1985 62.024 8.83935 79.1457 29.5002Z" fill="#7342E7"/>
  </svg>
  