<svg width="22" height="16" viewBox="0 0 22 16" fill="none" xmlns="http://www.w3.org/2000/svg">
<path d="M0 13.2024C0 12.6358 0.145833 12.1149 0.4375 11.6399C0.729167 11.1649 1.11667 10.8024 1.6 10.5524C2.63333 10.0358 3.68333 9.64827 4.75 9.38994C5.81667 9.13161 6.9 9.00244 8 9.00244C9.1 9.00244 10.1833 9.13161 11.25 9.38994C12.3167 9.64827 13.3667 10.0358 14.4 10.5524C14.8833 10.8024 15.2708 11.1649 15.5625 11.6399C15.8542 12.1149 16 12.6358 16 13.2024V14.0024C16 14.5524 15.8042 15.0233 15.4125 15.4149C15.0208 15.8066 14.55 16.0024 14 16.0024H2C1.45 16.0024 0.979167 15.8066 0.5875 15.4149C0.195833 15.0233 0 14.5524 0 14.0024V13.2024ZM20 16.0024H17.45C17.6333 15.7024 17.7708 15.3816 17.8625 15.0399C17.9542 14.6983 18 14.3524 18 14.0024V13.0024C18 12.2691 17.7958 11.5649 17.3875 10.8899C16.9792 10.2149 16.4 9.63578 15.65 9.15244C16.5 9.25244 17.3 9.42327 18.05 9.66494C18.8 9.90661 19.5 10.2024 20.15 10.5524C20.75 10.8858 21.2083 11.2566 21.525 11.6649C21.8417 12.0733 22 12.5191 22 13.0024V14.0024C22 14.5524 21.8042 15.0233 21.4125 15.4149C21.0208 15.8066 20.55 16.0024 20 16.0024ZM8 8.00244C6.9 8.00244 5.95833 7.61077 5.175 6.82744C4.39167 6.04411 4 5.10244 4 4.00244C4 2.90244 4.39167 1.96077 5.175 1.17744C5.95833 0.394108 6.9 0.00244141 8 0.00244141C9.1 0.00244141 10.0417 0.394108 10.825 1.17744C11.6083 1.96077 12 2.90244 12 4.00244C12 5.10244 11.6083 6.04411 10.825 6.82744C10.0417 7.61077 9.1 8.00244 8 8.00244ZM18 4.00244C18 5.10244 17.6083 6.04411 16.825 6.82744C16.0417 7.61077 15.1 8.00244 14 8.00244C13.8167 8.00244 13.5833 7.98161 13.3 7.93994C13.0167 7.89827 12.7833 7.85244 12.6 7.80244C13.05 7.26911 13.3958 6.67744 13.6375 6.02744C13.8792 5.37744 14 4.70244 14 4.00244C14 3.30244 13.8792 2.62744 13.6375 1.97744C13.3958 1.32744 13.05 0.735775 12.6 0.202441C12.8333 0.119108 13.0667 0.0649414 13.3 0.0399414C13.5333 0.0149414 13.7667 0.00244141 14 0.00244141C15.1 0.00244141 16.0417 0.394108 16.825 1.17744C17.6083 1.96077 18 2.90244 18 4.00244ZM2 14.0024H14V13.2024C14 13.0191 13.9542 12.8524 13.8625 12.7024C13.7708 12.5524 13.65 12.4358 13.5 12.3524C12.6 11.9024 11.6917 11.5649 10.775 11.3399C9.85833 11.1149 8.93333 11.0024 8 11.0024C7.06667 11.0024 6.14167 11.1149 5.225 11.3399C4.30833 11.5649 3.4 11.9024 2.5 12.3524C2.35 12.4358 2.22917 12.5524 2.1375 12.7024C2.04583 12.8524 2 13.0191 2 13.2024V14.0024ZM8 6.00244C8.55 6.00244 9.02083 5.80661 9.4125 5.41494C9.80417 5.02327 10 4.55244 10 4.00244C10 3.45244 9.80417 2.98161 9.4125 2.58994C9.02083 2.19827 8.55 2.00244 8 2.00244C7.45 2.00244 6.97917 2.19827 6.5875 2.58994C6.19583 2.98161 6 3.45244 6 4.00244C6 4.55244 6.19583 5.02327 6.5875 5.41494C6.97917 5.80661 7.45 6.00244 8 6.00244Z" fill="#667085"/>
</svg>
